<svg width="512" height="512" xmlns="http://www.w3.org/2000/svg">
  <defs>
    <linearGradient id="grad1" x1="0%" y1="0%" x2="100%" y2="100%">
      <stop offset="0%" style="stop-color:#1D9375;stop-opacity:1" />
      <stop offset="100%" style="stop-color:#1A4D4D;stop-opacity:1" />
    </linearGradient>
  </defs>
  
  <!-- Background Circle -->
  <circle cx="256" cy="256" r="240" fill="url(#grad1)"/>
  
  <!-- Crescent Moon -->
  <path d="M 200 120 Q 180 140, 180 180 Q 180 220, 200 240 Q 160 220, 160 180 Q 160 140, 200 120" 
        fill="#FFD700" stroke="#FFF" stroke-width="3"/>
  
  <!-- Star -->
  <path d="M 320 160 L 330 190 L 360 190 L 340 210 L 350 240 L 320 220 L 290 240 L 300 210 L 280 190 L 310 190 Z" 
        fill="#FFD700" stroke="#FFF" stroke-width="2"/>
  
  <!-- Mosque Dome -->
  <ellipse cx="256" cy="320" rx="80" ry="50" fill="#FFF" opacity="0.95"/>
  
  <!-- Minaret Left -->
  <rect x="190" y="280" width="20" height="100" fill="#FFF" opacity="0.95"/>
  <circle cx="200" cy="270" r="15" fill="#FFD700"/>
  
  <!-- Minaret Right -->
  <rect x="302" y="280" width="20" height="100" fill="#FFF" opacity="0.95"/>
  <circle cx="312" cy="270" r="15" fill="#FFD700"/>
  
  <!-- Door -->
  <rect x="236" y="340" width="40" height="60" rx="20" fill="#1D9375"/>
  
  <!-- Arabic Calligraphy Style Text -->
  <text x="256" y="450" font-family="Arial, sans-serif" font-size="48" font-weight="bold" 
        fill="#FFF" text-anchor="middle">Muslim Day</text>
</svg>
